<svg width="200" height="200" viewBox="0 0 200 200" xmlns="http://www.w3.org/2000/svg">
  <!-- Blue Background -->
  <circle cx="100" cy="100" r="100" fill="#4A90E2"/>
  
  <!-- Surfboard -->
  <ellipse cx="75" cy="160" rx="30" ry="8" fill="#FFD700" transform="rotate(-20 75 160)"/>
  
  <!-- Penguin Body -->
  <ellipse cx="100" cy="130" rx="45" ry="60" fill="#2C3E50"/>
  <ellipse cx="100" cy="130" rx="35" ry="50" fill="#FFFFFF"/>
  
  <!-- Penguin Head -->
  <circle cx="100" cy="80" r="35" fill="#2C3E50"/>
  <circle cx="100" cy="80" r="25" fill="#FFFFFF"/>
  
  <!-- Sunglasses -->
  <rect x="70" y="70" width="60" height="20" rx="10" fill="#1A1A1A"/>
  <circle cx="85" cy="80" r="12" fill="#333"/>
  <circle cx="115" cy="80" r="12" fill="#333"/>
  <rect x="97" y="78" width="6" height="4" fill="#1A1A1A"/>
  
  <!-- Beak -->
  <polygon points="100,90 95,95 105,95" fill="#FF8C00"/>
  
  <!-- Flippers -->
  <ellipse cx="65" cy="120" rx="12" ry="25" fill="#2C3E50" transform="rotate(-30 65 120)"/>
  <ellipse cx="135" cy="120" rx="12" ry="25" fill="#2C3E50" transform="rotate(30 135 120)"/>
  
  <!-- Feet -->
  <ellipse cx="88" cy="185" rx="8" ry="12" fill="#FF8C00"/>
  <ellipse cx="112" cy="185" rx="8" ry="12" fill="#FF8C00"/>
  
  <!-- Cool details -->
  <circle cx="85" cy="80" r="8" fill="#87CEEB" opacity="0.3"/>
  <circle cx="115" cy="80" r="8" fill="#87CEEB" opacity="0.3"/>
</svg>